<svg width="43" height="41" viewBox="0 0 43 41" fill="none" xmlns="http://www.w3.org/2000/svg">
    <path fill-rule="evenodd" clip-rule="evenodd" d="M21.5 0C9.62483 0 0 9.17888 0 20.5C0 31.8211 9.62483 41 21.5 41C33.3734 41 43 31.8211 43 20.5C43 9.17888 33.3734 0 21.5 0ZM21.7508 32.4891C14.8207 32.4891 9.20917 27.1249 9.20917 20.5C9.20917 13.8751 14.8207 8.51092 21.7508 8.51092C25.1371 8.51092 27.9679 9.70162 30.1394 11.6355L26.6027 15.0145V15.0077C25.2858 13.8085 23.616 13.1935 21.7508 13.1935C17.6121 13.1935 14.2491 16.535 14.2491 20.4932C14.2491 24.448 17.6121 27.7997 21.7508 27.7997C25.5062 27.7997 28.0611 25.7463 28.5878 22.9275H21.7508V18.2518H33.549C33.7066 19.0548 33.7908 19.8918 33.7908 20.7699C33.7908 27.6203 28.9945 32.4891 21.7508 32.4891Z" fill="#4B35D1"/>
    </svg>