<?xml version="1.0" encoding="UTF-8"?>
<svg xmlns="http://www.w3.org/2000/svg" xmlns:xlink="http://www.w3.org/1999/xlink" width="375pt" height="374.999991pt" viewBox="0 0 375 374.999991" version="1.2">
<defs>
<clipPath id="clip1">
  <path d="M 128 127 L 294 127 L 294 294 L 128 294 Z M 128 127 "/>
</clipPath>
<clipPath id="clip2">
  <path d="M 46.773438 124.558594 L 237.742188 50.703125 L 317.820312 257.757812 L 126.855469 331.613281 Z M 46.773438 124.558594 "/>
</clipPath>
<clipPath id="clip3">
  <path d="M 46.773438 124.558594 L 237.742188 50.703125 L 317.820312 257.757812 L 126.855469 331.613281 Z M 46.773438 124.558594 "/>
</clipPath>
<clipPath id="clip4">
  <path d="M 46.773438 124.558594 L 237.585938 50.761719 L 317.71875 257.949219 L 126.90625 331.746094 Z M 46.773438 124.558594 "/>
</clipPath>
<clipPath id="clip5">
  <path d="M 128 151 L 204 151 L 204 290 L 128 290 Z M 128 151 "/>
</clipPath>
<clipPath id="clip6">
  <path d="M 46.773438 124.558594 L 237.742188 50.703125 L 317.820312 257.757812 L 126.855469 331.613281 Z M 46.773438 124.558594 "/>
</clipPath>
<clipPath id="clip7">
  <path d="M 46.773438 124.558594 L 237.742188 50.703125 L 317.820312 257.757812 L 126.855469 331.613281 Z M 46.773438 124.558594 "/>
</clipPath>
<clipPath id="clip8">
  <path d="M 46.773438 124.558594 L 237.585938 50.761719 L 317.71875 257.949219 L 126.90625 331.746094 Z M 46.773438 124.558594 "/>
</clipPath>
<clipPath id="clip9">
  <path d="M 239 186 L 294 186 L 294 284 L 239 284 Z M 239 186 "/>
</clipPath>
<clipPath id="clip10">
  <path d="M 46.773438 124.558594 L 237.742188 50.703125 L 317.820312 257.757812 L 126.855469 331.613281 Z M 46.773438 124.558594 "/>
</clipPath>
<clipPath id="clip11">
  <path d="M 46.773438 124.558594 L 237.742188 50.703125 L 317.820312 257.757812 L 126.855469 331.613281 Z M 46.773438 124.558594 "/>
</clipPath>
<clipPath id="clip12">
  <path d="M 46.773438 124.558594 L 237.585938 50.761719 L 317.71875 257.949219 L 126.90625 331.746094 Z M 46.773438 124.558594 "/>
</clipPath>
<clipPath id="clip13">
  <path d="M 234 140 L 264 140 L 264 162 L 234 162 Z M 234 140 "/>
</clipPath>
<clipPath id="clip14">
  <path d="M 46.773438 124.558594 L 237.742188 50.703125 L 317.820312 257.757812 L 126.855469 331.613281 Z M 46.773438 124.558594 "/>
</clipPath>
<clipPath id="clip15">
  <path d="M 46.773438 124.558594 L 237.742188 50.703125 L 317.820312 257.757812 L 126.855469 331.613281 Z M 46.773438 124.558594 "/>
</clipPath>
<clipPath id="clip16">
  <path d="M 46.773438 124.558594 L 237.585938 50.761719 L 317.71875 257.949219 L 126.90625 331.746094 Z M 46.773438 124.558594 "/>
</clipPath>
<clipPath id="clip17">
  <path d="M 90 91 L 206 91 L 206 208 L 90 208 Z M 90 91 "/>
</clipPath>
<clipPath id="clip18">
  <path d="M 46.773438 124.558594 L 237.742188 50.703125 L 317.820312 257.757812 L 126.855469 331.613281 Z M 46.773438 124.558594 "/>
</clipPath>
<clipPath id="clip19">
  <path d="M 46.773438 124.558594 L 237.742188 50.703125 L 317.820312 257.757812 L 126.855469 331.613281 Z M 46.773438 124.558594 "/>
</clipPath>
<clipPath id="clip20">
  <path d="M 46.773438 124.558594 L 237.585938 50.761719 L 317.71875 257.949219 L 126.90625 331.746094 Z M 46.773438 124.558594 "/>
</clipPath>
<clipPath id="clip21">
  <path d="M 71 72 L 184 72 L 184 187 L 71 187 Z M 71 72 "/>
</clipPath>
<clipPath id="clip22">
  <path d="M 46.773438 124.558594 L 237.742188 50.703125 L 317.820312 257.757812 L 126.855469 331.613281 Z M 46.773438 124.558594 "/>
</clipPath>
<clipPath id="clip23">
  <path d="M 46.773438 124.558594 L 237.742188 50.703125 L 317.820312 257.757812 L 126.855469 331.613281 Z M 46.773438 124.558594 "/>
</clipPath>
<clipPath id="clip24">
  <path d="M 46.773438 124.558594 L 237.585938 50.761719 L 317.71875 257.949219 L 126.90625 331.746094 Z M 46.773438 124.558594 "/>
</clipPath>
<clipPath id="clip25">
  <path d="M 77 177 L 99 177 L 99 224 L 77 224 Z M 77 177 "/>
</clipPath>
<clipPath id="clip26">
  <path d="M 46.773438 124.558594 L 237.742188 50.703125 L 317.820312 257.757812 L 126.855469 331.613281 Z M 46.773438 124.558594 "/>
</clipPath>
<clipPath id="clip27">
  <path d="M 46.773438 124.558594 L 237.742188 50.703125 L 317.820312 257.757812 L 126.855469 331.613281 Z M 46.773438 124.558594 "/>
</clipPath>
<clipPath id="clip28">
  <path d="M 46.773438 124.558594 L 237.585938 50.761719 L 317.71875 257.949219 L 126.90625 331.746094 Z M 46.773438 124.558594 "/>
</clipPath>
<clipPath id="clip29">
  <path d="M 94 219 L 118 219 L 118 250 L 94 250 Z M 94 219 "/>
</clipPath>
<clipPath id="clip30">
  <path d="M 46.773438 124.558594 L 237.742188 50.703125 L 317.820312 257.757812 L 126.855469 331.613281 Z M 46.773438 124.558594 "/>
</clipPath>
<clipPath id="clip31">
  <path d="M 46.773438 124.558594 L 237.742188 50.703125 L 317.820312 257.757812 L 126.855469 331.613281 Z M 46.773438 124.558594 "/>
</clipPath>
<clipPath id="clip32">
  <path d="M 46.773438 124.558594 L 237.585938 50.761719 L 317.71875 257.949219 L 126.90625 331.746094 Z M 46.773438 124.558594 "/>
</clipPath>
<clipPath id="clip33">
  <path d="M 91 215 L 103 215 L 103 227 L 91 227 Z M 91 215 "/>
</clipPath>
<clipPath id="clip34">
  <path d="M 46.773438 124.558594 L 237.742188 50.703125 L 317.820312 257.757812 L 126.855469 331.613281 Z M 46.773438 124.558594 "/>
</clipPath>
<clipPath id="clip35">
  <path d="M 46.773438 124.558594 L 237.742188 50.703125 L 317.820312 257.757812 L 126.855469 331.613281 Z M 46.773438 124.558594 "/>
</clipPath>
<clipPath id="clip36">
  <path d="M 46.773438 124.558594 L 237.585938 50.761719 L 317.71875 257.949219 L 126.90625 331.746094 Z M 46.773438 124.558594 "/>
</clipPath>
</defs>
<g id="surface1">
<path style=" stroke:none;fill-rule:nonzero;fill:rgb(41.569519%,12.548828%,70.588684%);fill-opacity:1;" d="M 191.066406 29.183594 C 188.414062 29.183594 185.769531 29.25 183.121094 29.378906 C 180.476562 29.507812 177.835938 29.703125 175.199219 29.964844 C 172.5625 30.222656 169.933594 30.546875 167.3125 30.9375 C 164.691406 31.324219 162.082031 31.777344 159.484375 32.292969 C 156.886719 32.8125 154.300781 33.390625 151.730469 34.035156 C 149.160156 34.679688 146.609375 35.386719 144.074219 36.152344 C 141.539062 36.921875 139.023438 37.753906 136.527344 38.644531 C 134.035156 39.539062 131.5625 40.492188 129.117188 41.507812 C 126.667969 42.519531 124.246094 43.59375 121.851562 44.726562 C 119.457031 45.859375 117.089844 47.050781 114.753906 48.296875 C 112.417969 49.546875 110.113281 50.851562 107.839844 52.214844 C 105.570312 53.578125 103.332031 54.992188 101.128906 56.464844 C 98.925781 57.9375 96.761719 59.460938 94.632812 61.039062 C 92.503906 62.617188 90.417969 64.25 88.367188 65.929688 C 86.320312 67.609375 84.316406 69.339844 82.351562 71.117188 C 80.390625 72.898438 78.472656 74.722656 76.597656 76.597656 C 74.722656 78.472656 72.898438 80.390625 71.117188 82.351562 C 69.339844 84.316406 67.609375 86.320312 65.929688 88.367188 C 64.25 90.417969 62.617188 92.503906 61.039062 94.632812 C 59.460938 96.761719 57.9375 98.925781 56.464844 101.128906 C 54.992188 103.332031 53.578125 105.570312 52.214844 107.839844 C 50.851562 110.113281 49.546875 112.417969 48.296875 114.753906 C 47.050781 117.089844 45.859375 119.457031 44.726562 121.851562 C 43.59375 124.246094 42.519531 126.667969 41.507812 129.117188 C 40.492188 131.5625 39.539062 134.035156 38.644531 136.527344 C 37.753906 139.023438 36.921875 141.539062 36.152344 144.074219 C 35.386719 146.609375 34.679688 149.160156 34.035156 151.730469 C 33.390625 154.300781 32.8125 156.886719 32.292969 159.484375 C 31.777344 162.082031 31.324219 164.691406 30.9375 167.3125 C 30.546875 169.933594 30.222656 172.5625 29.964844 175.199219 C 29.703125 177.835938 29.507812 180.476562 29.378906 183.121094 C 29.25 185.769531 29.183594 188.414062 29.183594 191.066406 C 29.183594 193.714844 29.25 196.363281 29.378906 199.007812 C 29.507812 201.652344 29.703125 204.296875 29.964844 206.933594 C 30.222656 209.570312 30.546875 212.195312 30.9375 214.816406 C 31.324219 217.4375 31.777344 220.046875 32.292969 222.644531 C 32.8125 225.246094 33.390625 227.828125 34.035156 230.398438 C 34.679688 232.96875 35.386719 235.519531 36.152344 238.054688 C 36.921875 240.589844 37.753906 243.105469 38.644531 245.601562 C 39.539062 248.09375 40.492188 250.566406 41.507812 253.015625 C 42.519531 255.460938 43.59375 257.882812 44.726562 260.277344 C 45.859375 262.671875 47.050781 265.039062 48.296875 267.375 C 49.546875 269.710938 50.851562 272.015625 52.214844 274.289062 C 53.578125 276.5625 54.992188 278.796875 56.464844 281 C 57.9375 283.203125 59.460938 285.371094 61.039062 287.496094 C 62.617188 289.625 64.25 291.714844 65.929688 293.761719 C 67.609375 295.808594 69.339844 297.816406 71.117188 299.777344 C 72.898438 301.742188 74.722656 303.660156 76.597656 305.53125 C 78.472656 307.40625 80.390625 309.230469 82.351562 311.011719 C 84.316406 312.789062 86.320312 314.519531 88.367188 316.199219 C 90.417969 317.882812 92.503906 319.511719 94.632812 321.089844 C 96.761719 322.667969 98.925781 324.191406 101.128906 325.664062 C 103.332031 327.136719 105.570312 328.554688 107.839844 329.914062 C 110.113281 331.277344 112.417969 332.582031 114.753906 333.832031 C 117.089844 335.082031 119.457031 336.269531 121.851562 337.402344 C 124.246094 338.535156 126.667969 339.609375 129.117188 340.625 C 131.5625 341.636719 134.035156 342.589844 136.527344 343.484375 C 139.023438 344.375 141.539062 345.207031 144.074219 345.976562 C 146.609375 346.746094 149.160156 347.449219 151.730469 348.09375 C 154.300781 348.738281 156.886719 349.320312 159.484375 349.835938 C 162.082031 350.351562 164.691406 350.804688 167.3125 351.195312 C 169.933594 351.582031 172.5625 351.90625 175.199219 352.167969 C 177.835938 352.425781 180.476562 352.621094 183.121094 352.75 C 185.769531 352.882812 188.414062 352.945312 191.066406 352.945312 C 193.714844 352.945312 196.363281 352.882812 199.007812 352.75 C 201.652344 352.621094 204.296875 352.425781 206.933594 352.167969 C 209.570312 351.90625 212.195312 351.582031 214.816406 351.195312 C 217.4375 350.804688 220.046875 350.351562 222.644531 349.835938 C 225.246094 349.320312 227.828125 348.738281 230.398438 348.09375 C 232.96875 347.449219 235.519531 346.746094 238.054688 345.976562 C 240.589844 345.207031 243.105469 344.375 245.601562 343.484375 C 248.09375 342.589844 250.566406 341.636719 253.015625 340.625 C 255.460938 339.609375 257.882812 338.535156 260.277344 337.402344 C 262.671875 336.269531 265.039062 335.082031 267.375 333.832031 C 269.710938 332.582031 272.015625 331.277344 274.289062 329.914062 C 276.5625 328.554688 278.796875 327.136719 281 325.664062 C 283.203125 324.191406 285.371094 322.667969 287.496094 321.089844 C 289.625 319.511719 291.714844 317.882812 293.761719 316.199219 C 295.808594 314.519531 297.816406 312.789062 299.777344 311.011719 C 301.742188 309.230469 303.660156 307.40625 305.53125 305.53125 C 307.40625 303.660156 309.230469 301.742188 311.011719 299.777344 C 312.789062 297.816406 314.519531 295.808594 316.199219 293.761719 C 317.882812 291.714844 319.511719 289.625 321.089844 287.496094 C 322.667969 285.371094 324.191406 283.203125 325.664062 281 C 327.136719 278.796875 328.554688 276.5625 329.914062 274.289062 C 331.277344 272.015625 332.582031 269.710938 333.832031 267.375 C 335.082031 265.039062 336.269531 262.671875 337.402344 260.277344 C 338.535156 257.882812 339.609375 255.460938 340.625 253.015625 C 341.636719 250.566406 342.589844 248.09375 343.484375 245.601562 C 344.375 243.105469 345.207031 240.589844 345.976562 238.054688 C 346.746094 235.519531 347.449219 232.96875 348.09375 230.398438 C 348.738281 227.828125 349.320312 225.246094 349.835938 222.644531 C 350.351562 220.046875 350.804688 217.4375 351.195312 214.816406 C 351.582031 212.195312 351.90625 209.570312 352.167969 206.933594 C 352.425781 204.296875 352.621094 201.652344 352.75 199.007812 C 352.882812 196.363281 352.945312 193.714844 352.945312 191.066406 C 352.945312 188.414062 352.882812 185.769531 352.75 183.121094 C 352.621094 180.476562 352.425781 177.835938 352.167969 175.199219 C 351.90625 172.5625 351.582031 169.933594 351.195312 167.3125 C 350.804688 164.691406 350.351562 162.082031 349.835938 159.484375 C 349.320312 156.886719 348.738281 154.300781 348.09375 151.730469 C 347.449219 149.160156 346.746094 146.609375 345.976562 144.074219 C 345.207031 141.539062 344.375 139.023438 343.484375 136.527344 C 342.589844 134.035156 341.636719 131.5625 340.625 129.117188 C 339.609375 126.667969 338.535156 124.246094 337.402344 121.851562 C 336.269531 119.457031 335.082031 117.089844 333.832031 114.753906 C 332.582031 112.417969 331.277344 110.113281 329.914062 107.839844 C 328.554688 105.570312 327.136719 103.332031 325.664062 101.128906 C 324.191406 98.925781 322.667969 96.761719 321.089844 94.632812 C 319.511719 92.503906 317.882812 90.417969 316.199219 88.367188 C 314.519531 86.320312 312.789062 84.316406 311.011719 82.351562 C 309.230469 80.390625 307.40625 78.472656 305.53125 76.597656 C 303.660156 74.722656 301.742188 72.898438 299.777344 71.117188 C 297.816406 69.339844 295.808594 67.609375 293.761719 65.929688 C 291.714844 64.25 289.625 62.617188 287.496094 61.039062 C 285.371094 59.460938 283.203125 57.9375 281 56.464844 C 278.796875 54.992188 276.5625 53.578125 274.289062 52.214844 C 272.015625 50.851562 269.710938 49.546875 267.375 48.296875 C 265.039062 47.050781 262.671875 45.859375 260.277344 44.726562 C 257.882812 43.59375 255.460938 42.519531 253.015625 41.507812 C 250.566406 40.492188 248.09375 39.539062 245.601562 38.644531 C 243.105469 37.753906 240.589844 36.921875 238.054688 36.152344 C 235.519531 35.386719 232.96875 34.679688 230.398438 34.035156 C 227.828125 33.390625 225.246094 32.8125 222.644531 32.292969 C 220.046875 31.777344 217.4375 31.324219 214.816406 30.9375 C 212.195312 30.546875 209.570312 30.222656 206.933594 29.964844 C 204.296875 29.703125 201.652344 29.507812 199.007812 29.378906 C 196.363281 29.25 193.714844 29.183594 191.066406 29.183594 Z M 191.066406 29.183594 "/>
<g clip-path="url(#clip1)" clip-rule="nonzero">
<g clip-path="url(#clip2)" clip-rule="nonzero">
<g clip-path="url(#clip3)" clip-rule="nonzero">
<g clip-path="url(#clip4)" clip-rule="nonzero">
<path style=" stroke:none;fill-rule:nonzero;fill:rgb(72.549438%,84.709167%,94.898987%);fill-opacity:1;" d="M 287.910156 180.828125 C 304.355469 223.351562 283.3125 271.117188 240.910156 287.515625 C 198.511719 303.914062 150.804688 282.738281 134.359375 240.214844 C 117.910156 197.6875 138.953125 149.921875 181.355469 133.523438 C 223.757812 117.125 271.460938 138.304688 287.910156 180.828125 "/>
</g>
</g>
</g>
</g>
<g clip-path="url(#clip5)" clip-rule="nonzero">
<g clip-path="url(#clip6)" clip-rule="nonzero">
<g clip-path="url(#clip7)" clip-rule="nonzero">
<g clip-path="url(#clip8)" clip-rule="nonzero">
<path style=" stroke:none;fill-rule:nonzero;fill:rgb(43.139648%,76.469421%,59.999084%);fill-opacity:1;" d="M 188.722656 289.699219 C 188.832031 289.722656 188.941406 289.742188 189.050781 289.757812 C 190.027344 283.582031 196.214844 273.6875 188.773438 268.941406 C 186.601562 267.554688 183.902344 267.460938 181.347656 267.214844 C 172.453125 266.378906 163.316406 263.039062 157.84375 255.957031 C 152.375 248.878906 151.953125 237.554688 158.585938 231.582031 C 163.058594 227.574219 169.875 226.410156 173.367188 221.519531 C 177.707031 215.433594 174.792969 207.007812 175.609375 199.5625 C 175.78125 198.019531 176.15625 196.429688 177.175781 195.265625 C 178.503906 193.769531 180.597656 193.300781 182.53125 192.777344 C 189.28125 190.933594 195.542969 187.328125 200.535156 182.417969 C 202.875 180.125 205 176.398438 203.003906 173.792969 C 202.210938 172.746094 187.101562 173.25 174.484375 173.09375 C 158.339844 172.890625 155.574219 165.308594 153.222656 151.722656 C 130.625 174.085938 122.128906 208.597656 134.359375 240.214844 C 143.019531 262.609375 164.238281 285.21875 188.722656 289.699219 "/>
</g>
</g>
</g>
</g>
<g clip-path="url(#clip9)" clip-rule="nonzero">
<g clip-path="url(#clip10)" clip-rule="nonzero">
<g clip-path="url(#clip11)" clip-rule="nonzero">
<g clip-path="url(#clip12)" clip-rule="nonzero">
<path style=" stroke:none;fill-rule:nonzero;fill:rgb(43.139648%,76.469421%,59.999084%);fill-opacity:1;" d="M 264.511719 187.945312 C 259.082031 188.164062 253.136719 188.496094 248.269531 191.195312 C 245.984375 192.460938 243.3125 194.679688 242.25 197.121094 C 241.320312 199.242188 242.363281 201.074219 243.625 202.8125 C 246.9375 207.375 251.6875 210.742188 254.511719 215.675781 C 257.566406 220.996094 257.554688 227.113281 255.460938 232.765625 C 251.246094 244.152344 238.105469 252.496094 239.554688 265.765625 C 240.304688 272.503906 244.433594 278.429688 249.453125 283.636719 C 284.386719 265.359375 301.601562 224.359375 289.789062 186.265625 C 281.628906 188.070312 272.679688 187.617188 264.511719 187.945312 "/>
</g>
</g>
</g>
</g>
<g clip-path="url(#clip13)" clip-rule="nonzero">
<g clip-path="url(#clip14)" clip-rule="nonzero">
<g clip-path="url(#clip15)" clip-rule="nonzero">
<g clip-path="url(#clip16)" clip-rule="nonzero">
<path style=" stroke:none;fill-rule:nonzero;fill:rgb(100%,100%,100%);fill-opacity:1;" d="M 253.183594 143.785156 C 260.691406 148.042969 264.976562 154.695312 262.75 158.644531 C 260.53125 162.589844 252.632812 162.332031 245.125 158.078125 C 237.621094 153.8125 233.339844 147.160156 235.558594 143.210938 C 237.789062 139.269531 245.671875 139.523438 253.183594 143.785156 "/>
</g>
</g>
</g>
</g>
<g clip-path="url(#clip17)" clip-rule="nonzero">
<g clip-path="url(#clip18)" clip-rule="nonzero">
<g clip-path="url(#clip19)" clip-rule="nonzero">
<g clip-path="url(#clip20)" clip-rule="nonzero">
<path style=" stroke:none;fill-rule:nonzero;fill:rgb(92.939758%,32.939148%,48.629761%);fill-opacity:1;" d="M 205.207031 128.75 L 180 180.835938 C 180 180.835938 165.398438 188.199219 148.199219 197.09375 C 133.054688 204.925781 128.5625 207.128906 128.5625 207.128906 L 90.222656 169.472656 L 166.867188 91.09375 L 205.207031 128.75 "/>
</g>
</g>
</g>
</g>
<g clip-path="url(#clip21)" clip-rule="nonzero">
<g clip-path="url(#clip22)" clip-rule="nonzero">
<g clip-path="url(#clip23)" clip-rule="nonzero">
<g clip-path="url(#clip24)" clip-rule="nonzero">
<path style=" stroke:none;fill-rule:nonzero;fill:rgb(28.62854%,39.608765%,57.249451%);fill-opacity:1;" d="M 114.023438 115.640625 L 181.378906 72.847656 C 182.394531 72.199219 183.609375 73.355469 183.003906 74.402344 L 143.132812 144.113281 C 143.035156 144.289062 142.898438 144.4375 142.730469 144.53125 L 73.558594 186.332031 C 72.527344 186.957031 71.34375 185.769531 71.976562 184.738281 L 113.652344 116.015625 C 113.746094 115.859375 113.875 115.734375 114.023438 115.640625 "/>
</g>
</g>
</g>
</g>
<g clip-path="url(#clip25)" clip-rule="nonzero">
<g clip-path="url(#clip26)" clip-rule="nonzero">
<g clip-path="url(#clip27)" clip-rule="nonzero">
<g clip-path="url(#clip28)" clip-rule="nonzero">
<path style="fill:none;stroke-width:50;stroke-linecap:round;stroke-linejoin:round;stroke:rgb(28.62854%,39.608765%,57.249451%);stroke-opacity:1;stroke-miterlimit:10;" d="M 1067.18642 2679.521251 L 1075.375001 2160.790747 " transform="matrix(0.0804437,-0.0311118,-0.0312012,-0.0806749,77.587946,428.993228)"/>
</g>
</g>
</g>
</g>
<g clip-path="url(#clip29)" clip-rule="nonzero">
<g clip-path="url(#clip30)" clip-rule="nonzero">
<g clip-path="url(#clip31)" clip-rule="nonzero">
<g clip-path="url(#clip32)" clip-rule="nonzero">
<path style=" stroke:none;fill-rule:nonzero;fill:rgb(97.24884%,86.669922%,30.589294%);fill-opacity:1;" d="M 106.082031 244.785156 L 94.992188 249.28125 L 95.414062 234.398438 L 95.84375 219.515625 L 117.164062 240.296875 L 106.082031 244.785156 "/>
</g>
</g>
</g>
</g>
<g clip-path="url(#clip33)" clip-rule="nonzero">
<g clip-path="url(#clip34)" clip-rule="nonzero">
<g clip-path="url(#clip35)" clip-rule="nonzero">
<g clip-path="url(#clip36)" clip-rule="nonzero">
<path style=" stroke:none;fill-rule:nonzero;fill:rgb(92.939758%,32.939148%,48.629761%);fill-opacity:1;" d="M 101.839844 218.464844 C 102.984375 221.304688 101.621094 224.53125 98.789062 225.671875 C 95.96875 226.820312 92.75 225.449219 91.597656 222.621094 C 90.453125 219.78125 91.816406 216.554688 94.636719 215.410156 C 97.464844 214.257812 100.6875 215.628906 101.839844 218.464844 "/>
</g>
</g>
</g>
</g>
</g>
</svg>
